STARTFONT 2.1
COMMENT
COMMENT  Copyright 1989 by Sony Corp.
COMMENT
COMMENT  Permission to use, copy, modify, and distribute this software and
COMMENT  its documentation for any purpose and without fee is hereby granted,
COMMENT  provided that the above copyright notices appear in all copies and
COMMENT  that both those copyright notices and this permission notice appear
COMMENT  in supporting documentation, and that the name of Sony Corp.
COMMENT  not be used in advertising or publicity pertaining to distribution
COMMENT  of the software without specific, written prior permission.  Sony
COMMENT  Corp. makes no representations about the suitability of this
COMMENT  software for any purpose.  It is provided "as is" without express or
COMMENT  implied warranty.
COMMENT
COMMENT  SONY DISCLAIMS ALL WARRANTIES WITH REGARD TO THIS
COMMENT  SOFTWARE, INCLUDING ALL IMPLIED WARRANTIES OF MERCHANTABILITY AND
COMMENT  FITNESS, IN NO EVENT SHALL SONY BE LIABLE FOR ANY
COMMENT  SPECIAL, INDIRECT OR CONSEQUENTIAL DAMAGES OR ANY DAMAGES WHATSOEVER
COMMENT  RESULTING FROM LOSS OF USE, DATA OR PROFITS, WHETHER IN AN ACTION OF
COMMENT  CONTRACT, NEGLIGENCE OR OTHER TORTIOUS ACTION, ARISING OUT OF OR IN
COMMENT  CONNECTION WITH THE USE OR PERFORMANCE OF THIS SOFTWARE.
COMMENT
FONT -Sony-Fixed-Medium-R-Normal--24-170-100-100-C-120-windows-1251
SIZE 24 100 100
FONTBOUNDINGBOX 12 24 0 -2
STARTPROPERTIES 23
FONTNAME_REGISTRY ""
FOUNDRY "Sony"
FAMILY_NAME "Fixed"
WEIGHT_NAME "Medium"
SLANT "R"
SETWIDTH_NAME "Normal"
ADD_STYLE_NAME ""
PIXEL_SIZE 24
POINT_SIZE 170
RESOLUTION_X 100
RESOLUTION_Y 100
SPACING "C"
AVERAGE_WIDTH 120
CHARSET_REGISTRY "windows"
CHARSET_ENCODING "1251"
DEFAULT_CHAR 32
FONT_DESCENT 2
FONT_ASCENT 22
COPYRIGHT "Copyright (c) 1987, 1988 Sony Corp."
COPYRIGHT2 "Cyrillic, Euro and special glyphs copyright 2000 Dmitry Yu. Bolkhovityanov, bolkhov@inp.nsk.su"
SOURCEDATE "Wed Aug  9 20:20:40 2000"
PKGVERSION "1.1"
ASSEMBLER "cvtbdf.pl (Linux)"
ENDPROPERTIES
CHARS 264
STARTCHAR null
ENCODING 0
SWIDTH 508 0
DWIDTH 12 0
BBX 12 24 0 -2
BITMAP
0000
0000
7FC0
7FC0
7FC0
7FC0
7FC0
7FC0
7FC0
7FC0
7FC0
7FC0
7FC0
7FC0
7FC0
7FC0
7FC0
7FC0
7FC0
7FC0
7FC0
0000
0000
0000
ENDCHAR
STARTCHAR ctrlA
ENCODING 1
SWIDTH 508 0
DWIDTH 12 0
BBX 12 24 0 -2
BITMAP
0400
0400
0E00
0E00
1F00
1F00
3F80
3F80
7FC0
7FC0
FFE0
7FC0
7FC0
3F80
3F80
1F00
1F00
0E00
0E00
0400
0400
0000
0000
0000
ENDCHAR
STARTCHAR ctrlB
ENCODING 2
SWIDTH 508 0
DWIDTH 12 0
BBX 12 24 0 -2
BITMAP
C630
C630
C630
30C0
30C0
30C0
C630
C630
C630
30C0
30C0
30C0
C630
C630
C630
30C0
30C0
30C0
C630
C630
C630
0000
0000
0000
ENDCHAR
STARTCHAR ctrlC
ENCODING 3
SWIDTH 508 0
DWIDTH 12 0
BBX 12 24 0 -2
BITMAP
0000
0000
C600
C600
C600
C600
FE00
C600
C600
C600
C600
0000
0000
3FC0
0600
0600
0600
0600
0600
0600
0600
0000
0000
0000
ENDCHAR
STARTCHAR ctrlD
ENCODING 4
SWIDTH 508 0
DWIDTH 12 0
BBX 12 24 0 -2
BITMAP
0000
0000
FE00
C000
C000
C000
FC00
C000
C000
C000
C000
0000
1FC0
1800
1800
1800
1F80
1800
1800
1800
1800
0000
0000
0000
ENDCHAR
STARTCHAR ctrlE
ENCODING 5
SWIDTH 508 0
DWIDTH 12 0
BBX 12 24 0 -2
BITMAP
0000
0000
3C00
6600
C600
C000
C000
C000
C000
6600
3C00
0000
1F80
18C0
18C0
18C0
1F80
1900
1980
18C0
18C0
0000
0000
0000
ENDCHAR
STARTCHAR ctrlF
ENCODING 6
SWIDTH 508 0
DWIDTH 12 0
BBX 12 24 0 -2
BITMAP
0000
0000
C000
C000
C000
C000
C000
C000
C000
C000
FE00
0000
1FC0
1800
1800
1800
1F80
1800
1800
1800
1800
0000
0000
0000
ENDCHAR
STARTCHAR ctrlG
ENCODING 7
SWIDTH 508 0
DWIDTH 12 0
BBX 12 24 0 -2
BITMAP
0000
0000
0000
0000
0E00
1B00
3180
3180
1B00
0E00
0000
0000
0000
0000
0000
0000
0000
0000
0000
0000
0000
0000
0000
0000
ENDCHAR
STARTCHAR ctrlH
ENCODING 8
SWIDTH 508 0
DWIDTH 12 0
BBX 12 24 0 -2
BITMAP
0000
0000
0000
0C00
0C00
0C00
0C00
0C00
0C00
FFC0
FFC0
0C00
0C00
0C00
0C00
0C00
0C00
0000
FFC0
FFC0
0000
0000
0000
0000
ENDCHAR
STARTCHAR ctrlI
ENCODING 9
SWIDTH 508 0
DWIDTH 12 0
BBX 12 24 0 -2
BITMAP
0000
0000
E300
E300
D300
D300
CB00
CB00
C700
C700
C300
0000
1800
1800
1800
1800
1800
1800
1800
1800
1FC0
0000
0000
0000
ENDCHAR
STARTCHAR ctrlJ
ENCODING 10
SWIDTH 508 0
DWIDTH 12 0
BBX 12 24 0 -2
BITMAP
0000
0000
C180
C180
6300
6300
3600
3600
1C00
1C00
0800
0000
0000
3FC0
0600
0600
0600
0600
0600
0600
0600
0000
0000
0000
ENDCHAR
STARTCHAR ldcornsqlr
ENCODING 11
SWIDTH 508 0
DWIDTH 12 0
BBX 12 24 0 -2
BITMAP
0400
0400
0400
0400
0400
0400
0400
0400
0400
0400
0400
0400
FC00
0000
0000
0000
0000
0000
0000
0000
0000
0000
0000
0000
ENDCHAR
STARTCHAR ldcornsqur
ENCODING 12
SWIDTH 508 0
DWIDTH 12 0
BBX 12 24 0 -2
BITMAP
0000
0000
0000
0000
0000
0000
0000
0000
0000
0000
0000
0000
FC00
0400
0400
0400
0400
0400
0400
0400
0400
0400
0400
0400
ENDCHAR
STARTCHAR ldcornsqul
ENCODING 13
SWIDTH 508 0
DWIDTH 12 0
BBX 12 24 0 -2
BITMAP
0000
0000
0000
0000
0000
0000
0000
0000
0000
0000
0000
0000
07F0
0400
0400
0400
0400
0400
0400
0400
0400
0400
0400
0400
ENDCHAR
STARTCHAR ldcornsqll
ENCODING 14
SWIDTH 508 0
DWIDTH 12 0
BBX 12 24 0 -2
BITMAP
0400
0400
0400
0400
0400
0400
0400
0400
0400
0400
0400
0400
07F0
0000
0000
0000
0000
0000
0000
0000
0000
0000
0000
0000
ENDCHAR
STARTCHAR ldcross
ENCODING 15
SWIDTH 508 0
DWIDTH 12 0
BBX 12 24 0 -2
BITMAP
0400
0400
0400
0400
0400
0400
0400
0400
0400
0400
0400
0400
FFF0
0400
0400
0400
0400
0400
0400
0400
0400
0400
0400
0400
ENDCHAR
STARTCHAR ctrlP
ENCODING 16
SWIDTH 508 0
DWIDTH 12 0
BBX 12 24 0 -2
BITMAP
0000
0000
FFF0
0000
0000
0000
0000
0000
0000
0000
0000
0000
0000
0000
0000
0000
0000
0000
0000
0000
0000
0000
0000
0000
ENDCHAR
STARTCHAR ctrlQ
ENCODING 17
SWIDTH 508 0
DWIDTH 12 0
BBX 12 24 0 -2
BITMAP
0000
0000
0000
0000
0000
0000
0000
FFF0
0000
0000
0000
0000
0000
0000
0000
0000
0000
0000
0000
0000
0000
0000
0000
0000
ENDCHAR
STARTCHAR ldhorizontal
ENCODING 18
SWIDTH 508 0
DWIDTH 12 0
BBX 12 24 0 -2
BITMAP
0000
0000
0000
0000
0000
0000
0000
0000
0000
0000
0000
0000
FFF0
0000
0000
0000
0000
0000
0000
0000
0000
0000
0000
0000
ENDCHAR
STARTCHAR ctrlS
ENCODING 19
SWIDTH 508 0
DWIDTH 12 0
BBX 12 24 0 -2
BITMAP
0000
0000
0000
0000
0000
0000
0000
0000
0000
0000
0000
0000
0000
0000
0000
0000
0000
FFF0
0000
0000
0000
0000
0000
0000
ENDCHAR
STARTCHAR ctrlT
ENCODING 20
SWIDTH 508 0
DWIDTH 12 0
BBX 12 24 0 -2
BITMAP
0000
0000
0000
0000
0000
0000
0000
0000
0000
0000
0000
0000
0000
0000
0000
0000
0000
0000
0000
0000
0000
0000
FFF0
0000
ENDCHAR
STARTCHAR ldteelft
ENCODING 21
SWIDTH 508 0
DWIDTH 12 0
BBX 12 24 0 -2
BITMAP
0400
0400
0400
0400
0400
0400
0400
0400
0400
0400
0400
0400
07F0
0400
0400
0400
0400
0400
0400
0400
0400
0400
0400
0400
ENDCHAR
STARTCHAR ldteert
ENCODING 22
SWIDTH 508 0
DWIDTH 12 0
BBX 12 24 0 -2
BITMAP
0400
0400
0400
0400
0400
0400
0400
0400
0400
0400
0400
0400
FC00
0400
0400
0400
0400
0400
0400
0400
0400
0400
0400
0400
ENDCHAR
STARTCHAR ldteebt
ENCODING 23
SWIDTH 508 0
DWIDTH 12 0
BBX 12 24 0 -2
BITMAP
0400
0400
0400
0400
0400
0400
0400
0400
0400
0400
0400
0400
FFF0
0000
0000
0000
0000
0000
0000
0000
0000
0000
0000
0000
ENDCHAR
STARTCHAR ldteetp
ENCODING 24
SWIDTH 508 0
DWIDTH 12 0
BBX 12 24 0 -2
BITMAP
0000
0000
0000
0000
0000
0000
0000
0000
0000
0000
0000
0000
FFF0
0400
0400
0400
0400
0400
0400
0400
0400
0400
0400
0400
ENDCHAR
STARTCHAR ldvertical
ENCODING 25
SWIDTH 508 0
DWIDTH 12 0
BBX 12 24 0 -2
BITMAP
0400
0400
0400
0400
0400
0400
0400
0400
0400
0400
0400
0400
0400
0400
0400
0400
0400
0400
0400
0400
0400
0400
0400
0400
ENDCHAR
STARTCHAR ctrlZ
ENCODING 26
SWIDTH 508 0
DWIDTH 12 0
BBX 12 24 0 -2
BITMAP
0000
0000
0000
0000
0000
0000
0000
0040
00C0
0380
0E00
3800
E000
3800
0E00
0380
00C0
0040
FFC0
0000
FFC0
0000
0000
0000
ENDCHAR
STARTCHAR ctrlBRL
ENCODING 27
SWIDTH 508 0
DWIDTH 12 0
BBX 12 24 0 -2
BITMAP
0000
0000
0000
0000
0000
0000
0000
8000
C000
7000
1C00
0700
01C0
0700
1C00
7000
C000
8000
FFC0
0000
FFC0
0000
0000
0000
ENDCHAR
STARTCHAR ctrlBSLASH
ENCODING 28
SWIDTH 508 0
DWIDTH 12 0
BBX 12 24 0 -2
BITMAP
0000
0000
0000
0000
0000
0000
0000
0000
0000
0000
0000
FFE0
3180
3180
3180
3180
3180
7180
6180
C180
C180
0000
0000
0000
ENDCHAR
STARTCHAR ctrlBRR
ENCODING 29
SWIDTH 508 0
DWIDTH 12 0
BBX 12 24 0 -2
BITMAP
0000
0000
0000
0000
0000
0000
0000
00C0
0180
0100
0200
FFC0
0400
0C00
0800
FFC0
1000
2000
6000
C000
0000
0000
0000
0000
ENDCHAR
STARTCHAR ctrlCARET
ENCODING 30
SWIDTH 508 0
DWIDTH 12 0
BBX 12 24 0 -2
BITMAP
0000
0000
0000
0000
0000
0000
0000
0380
0440
0C60
0C60
0C00
0C00
4C00
7FC0
0C00
0C00
0C00
3F80
6CE0
6CE0
3800
0000
0000
ENDCHAR
STARTCHAR ctrlUND
ENCODING 31
SWIDTH 508 0
DWIDTH 12 0
BBX 12 24 0 -2
BITMAP
0000
0000
0000
0000
0000
0000
0000
0000
0000
0000
0000
0000
0C00
0C00
0000
0000
0000
0000
0000
0000
0000
0000
0000
0000
ENDCHAR
STARTCHAR space
ENCODING 32
SWIDTH 508 0
DWIDTH 12 0
BBX 12 24 0 -2
BITMAP
0000
0000
0000
0000
0000
0000
0000
0000
0000
0000
0000
0000
0000
0000
0000
0000
0000
0000
0000
0000
0000
0000
0000
0000
ENDCHAR
STARTCHAR exclam
ENCODING 33
SWIDTH 508 0
DWIDTH 12 0
BBX 12 24 0 -2
BITMAP
0000
0000
0E00
0E00
0E00
0E00
0E00
0E00
0E00
0E00
0E00
0400
0400
0400
0400
0400
0000
0000
0E00
0E00
0E00
0000
0000
0000
ENDCHAR
STARTCHAR quotedbl
ENCODING 34
SWIDTH 508 0
DWIDTH 12 0
BBX 12 24 0 -2
BITMAP
3180
3180
3180
3180
2100
2100
0000
0000
0000
0000
0000
0000
0000
0000
0000
0000
0000
0000
0000
0000
0000
0000
0000
0000
ENDCHAR
STARTCHAR numbersign
ENCODING 35
SWIDTH 508 0
DWIDTH 12 0
BBX 12 24 0 -2
BITMAP
0000
0880
0880
0880
0880
0880
0880
7FE0
7FE0
1100
1100
1100
1100
1100
1100
FFC0
FFC0
2200
2200
2200
2200
2200
2200
0000
ENDCHAR
STARTCHAR dollar
ENCODING 36
SWIDTH 508 0
DWIDTH 12 0
BBX 12 24 0 -2
BITMAP
0000
0400
0400
1F00
64C0
C460
C460
C400
C400
E400
7C00
1F00
07C0
04E0
0460
0460
0460
C460
C460
64C0
1F00
0400
0400
0000
ENDCHAR
STARTCHAR percent
ENCODING 37
SWIDTH 508 0
DWIDTH 12 0
BBX 12 24 0 -2
BITMAP
0000
7820
CC20
CC40
CC40
CC80
CC80
7900
0100
0200
0200
0400
0400
0800
0800
1000
13C0
2660
2660
4660
4660
8660
83C0
0000
ENDCHAR
STARTCHAR ampersand
ENCODING 38
SWIDTH 508 0
DWIDTH 12 0
BBX 12 24 0 -2
BITMAP
0000
0000
1E00
2100
6180
6180
6180
6300
6600
3400
1800
1800
2C00
4400
C660
C320
C160
C1C0
C080
61C0
3F60
0000
0000
0000
ENDCHAR
STARTCHAR quotesingle
ENCODING 39
SWIDTH 508 0
DWIDTH 12 0
BBX 12 24 0 -2
BITMAP
0C00
0C00
0C00
0C00
0800
0800
0000
0000
0000
0000
0000
0000
0000
0000
0000
0000
0000
0000
0000
0000
0000
0000
0000
0000
ENDCHAR
STARTCHAR parenleft
ENCODING 40
SWIDTH 508 0
DWIDTH 12 0
BBX 12 24 0 -2
BITMAP
0040
0080
0180
0100
0300
0200
0600
0600
0400
0C00
0C00
0C00
0C00
0C00
0C00
0400
0600
0600
0200
0300
0100
0180
0080
0040
ENDCHAR
STARTCHAR parenright
ENCODING 41
SWIDTH 508 0
DWIDTH 12 0
BBX 12 24 0 -2
BITMAP
4000
2000
3000
1000
1800
0800
0C00
0C00
0400
0600
0600
0600
0600
0600
0600
0400
0C00
0C00
0800
1800
1000
3000
2000
4000
ENDCHAR
STARTCHAR asterisk
ENCODING 42
SWIDTH 508 0
DWIDTH 12 0
BBX 12 24 0 -2
BITMAP
0000
0000
0000
0000
0000
0000
0C00
0C00
CCC0
EDC0
3F00
0C00
0C00
3F00
EDC0
CCC0
0C00
0C00
0000
0000
0000
0000
0000
0000
ENDCHAR
STARTCHAR plus
ENCODING 43
SWIDTH 508 0
DWIDTH 12 0
BBX 12 24 0 -2
BITMAP
0000
0000
0000
0000
0000
0600
0600
0600
0600
0600
0600
7FE0
7FE0
0600
0600
0600
0600
0600
0600
0000
0000
0000
0000
0000
ENDCHAR
STARTCHAR comma
ENCODING 44
SWIDTH 508 0
DWIDTH 12 0
BBX 12 24 0 -2
BITMAP
0000
0000
0000
0000
0000
0000
0000
0000
0000
0000
0000
0000
0000
0000
0000
0000
0000
0000
1C00
1C00
0C00
0C00
0800
1000
ENDCHAR
STARTCHAR minus
ENCODING 45
SWIDTH 508 0
DWIDTH 12 0
BBX 12 24 0 -2
BITMAP
0000
0000
0000
0000
0000
0000
0000
0000
0000
0000
0000
FFE0
FFE0
0000
0000
0000
0000
0000
0000
0000
0000
0000
0000
0000
ENDCHAR
STARTCHAR period
ENCODING 46
SWIDTH 508 0
DWIDTH 12 0
BBX 12 24 0 -2
BITMAP
0000
0000
0000
0000
0000
0000
0000
0000
0000
0000
0000
0000
0000
0000
0000
0000
0000
0000
1C00
1C00
1C00
0000
0000
0000
ENDCHAR
STARTCHAR slash
ENCODING 47
SWIDTH 508 0
DWIDTH 12 0
BBX 12 24 0 -2
BITMAP
0000
0020
0060
0040
00C0
0080
0180
0100
0300
0200
0600
0400
0C00
0800
1800
1000
3000
2000
6000
4000
C000
8000
8000
0000
ENDCHAR
STARTCHAR zero
ENCODING 48
SWIDTH 508 0
DWIDTH 12 0
BBX 12 24 0 -2
BITMAP
0000
0000
0E00
1B00
3180
2080
60C0
4040
C060
C060
C060
C060
C060
C060
C060
C060
4040
60C0
2080
3180
1B00
0E00
0000
0000
ENDCHAR
STARTCHAR one
ENCODING 49
SWIDTH 508 0
DWIDTH 12 0
BBX 12 24 0 -2
BITMAP
0000
0000
0600
0E00
1E00
7E00
0600
0600
0600
0600
0600
0600
0600
0600
0600
0600
0600
0600
0600
0600
0600
3FC0
0000
0000
ENDCHAR
STARTCHAR two
ENCODING 50
SWIDTH 508 0
DWIDTH 12 0
BBX 12 24 0 -2
BITMAP
0000
0000
0E00
3180
60C0
4060
8060
0060
0060
00C0
00C0
0180
0300
0200
0400
0800
1000
2020
4020
4060
FFE0
FFE0
0000
0000
ENDCHAR
STARTCHAR three
ENCODING 51
SWIDTH 508 0
DWIDTH 12 0
BBX 12 24 0 -2
BITMAP
0000
0000
3E00
6380
8180
00C0
00C0
00C0
0080
0100
1E00
3F80
01C0
00E0
0060
0060
0060
0060
00C0
0180
0700
F800
0000
0000
ENDCHAR
STARTCHAR four
ENCODING 52
SWIDTH 508 0
DWIDTH 12 0
BBX 12 24 0 -2
BITMAP
0000
0000
0180
0180
0380
0380
0580
0580
0980
0980
1180
1180
2180
2180
4180
4180
FFE0
0180
0180
0180
0180
07E0
0000
0000
ENDCHAR
STARTCHAR five
ENCODING 53
SWIDTH 508 0
DWIDTH 12 0
BBX 12 24 0 -2
BITMAP
0000
0000
7FE0
7FC0
4000
4000
4000
4000
4000
5F00
7180
60C0
4060
0060
0060
0060
0060
0060
00C0
00C0
0380
7C00
0000
0000
ENDCHAR
STARTCHAR six
ENCODING 54
SWIDTH 508 0
DWIDTH 12 0
BBX 12 24 0 -2
BITMAP
0000
0000
0380
0C00
1000
3000
6000
6000
C000
C000
CF00
F0C0
C060
C060
C060
C060
C060
C060
60C0
60C0
3180
0E00
0000
0000
ENDCHAR
STARTCHAR seven
ENCODING 55
SWIDTH 508 0
DWIDTH 12 0
BBX 12 24 0 -2
BITMAP
0000
0000
FFE0
FFE0
C020
8040
8080
0080
0100
0100
0200
0200
0600
0600
0400
0C00
0C00
0C00
0C00
0C00
0C00
0C00
0000
0000
ENDCHAR
STARTCHAR eight
ENCODING 56
SWIDTH 508 0
DWIDTH 12 0
BBX 12 24 0 -2
BITMAP
0000
0000
0E00
3180
2080
60C0
60C0
60C0
60C0
3080
3900
1E00
1F00
23C0
40C0
C060
C060
C060
C060
4040
60C0
1F00
0000
0000
ENDCHAR
STARTCHAR nine
ENCODING 57
SWIDTH 508 0
DWIDTH 12 0
BBX 12 24 0 -2
BITMAP
0000
0000
0E00
3180
60C0
60C0
C060
C060
C060
C060
C060
4060
61E0
1E60
0060
0060
00C0
00C0
0180
0100
0600
3800
0000
0000
ENDCHAR
STARTCHAR colon
ENCODING 58
SWIDTH 508 0
DWIDTH 12 0
BBX 12 24 0 -2
BITMAP
0000
0000
0000
0000
0000
0000
0000
0000
0E00
0E00
0E00
0000
0000
0000
0000
0000
0000
0000
0E00
0E00
0E00
0000
0000
0000
ENDCHAR
STARTCHAR semicolon
ENCODING 59
SWIDTH 508 0
DWIDTH 12 0
BBX 12 24 0 -2
BITMAP
0000
0000
0000
0000
0000
0000
0000
0000
0E00
0E00
0E00
0000
0000
0000
0000
0000
0000
0000
0E00
0E00
0600
0600
0400
0800
ENDCHAR
STARTCHAR less
ENCODING 60
SWIDTH 508 0
DWIDTH 12 0
BBX 12 24 0 -2
BITMAP
0000
0000
0020
0060
00C0
0180
0300
0600
0C00
1800
3000
6000
6000
3000
1800
0C00
0600
0300
0180
00C0
0060
0020
0000
0000
ENDCHAR
STARTCHAR equal
ENCODING 61
SWIDTH 508 0
DWIDTH 12 0
BBX 12 24 0 -2
BITMAP
0000
0000
0000
0000
0000
0000
0000
0000
FFE0
FFE0
0000
0000
0000
0000
FFE0
FFE0
0000
0000
0000
0000
0000
0000
0000
0000
ENDCHAR
STARTCHAR greater
ENCODING 62
SWIDTH 508 0
DWIDTH 12 0
BBX 12 24 0 -2
BITMAP
0000
0000
4000
6000
3000
1800
0C00
0600
0300
0180
00C0
0060
0060
00C0
0180
0300
0600
0C00
1800
3000
6000
4000
0000
0000
ENDCHAR
STARTCHAR question
ENCODING 63
SWIDTH 508 0
DWIDTH 12 0
BBX 12 24 0 -2
BITMAP
0000
0000
0F00
30C0
6060
6060
7060
3060
00E0
00C0
0180
0300
0200
0400
0400
0400
0000
0000
0E00
0E00
0E00
0000
0000
0000
ENDCHAR
STARTCHAR at
ENCODING 64
SWIDTH 508 0
DWIDTH 12 0
BBX 12 24 0 -2
BITMAP
0000
0000
1F00
2080
60C0
4040
C060
8D20
9720
B320
B320
B320
B320
B320
B320
B760
9DC0
C000
4000
6020
20C0
1F00
0000
0000
ENDCHAR
STARTCHAR A
ENCODING 65
SWIDTH 508 0
DWIDTH 12 0
BBX 12 24 0 -2
BITMAP
0000
0000
0600
0600
0600
0B00
0B00
0B00
0980
1180
1180
1180
20C0
20C0
3FC0
20C0
4060
4060
4060
4060
E0F0
0000
0000
0000
ENDCHAR
STARTCHAR B
ENCODING 66
SWIDTH 508 0
DWIDTH 12 0
BBX 12 24 0 -2
BITMAP
0000
0000
FE00
6180
60C0
60C0
60C0
60C0
60C0
6080
6100
7E00
6180
60C0
6060
6060
6060
6060
60C0
6180
FE00
0000
0000
0000
ENDCHAR
STARTCHAR C
ENCODING 67
SWIDTH 508 0
DWIDTH 12 0
BBX 12 24 0 -2
BITMAP
0000
0000
0720
18E0
3060
3020
6000
6000
6000
6000
6000
6000
6000
6000
6000
6000
6000
3020
3020
18C0
0700
0000
0000
0000
ENDCHAR
STARTCHAR D
ENCODING 68
SWIDTH 508 0
DWIDTH 12 0
BBX 12 24 0 -2
BITMAP
0000
0000
FC00
6300
6180
60C0
60C0
6060
6060
6060
6060
6060
6060
6060
6060
6060
60C0
60C0
6180
6300
FC00
0000
0000
0000
ENDCHAR
STARTCHAR E
ENCODING 69
SWIDTH 508 0
DWIDTH 12 0
BBX 12 24 0 -2
BITMAP
0000
0000
FFC0
60C0
6040
6020
6000
6000
6100
6100
6300
7F00
6300
6100
6100
6000
6000
6020
6040
60C0
FFC0
0000
0000
0000
ENDCHAR
STARTCHAR F
ENCODING 70
SWIDTH 508 0
DWIDTH 12 0
BBX 12 24 0 -2
BITMAP
0000
0000
FFC0
60C0
6040
6020
6000
6000
6100
6100
6300
7F00
6300
6100
6100
6000
6000
6000
6000
6000
F000
0000
0000
0000
ENDCHAR
STARTCHAR G
ENCODING 71
SWIDTH 508 0
DWIDTH 12 0
BBX 12 24 0 -2
BITMAP
0000
0000
0E40
31C0
60C0
6040
C000
C000
C000
C000
C000
C000
C3E0
C0C0
C0C0
C0C0
C0C0
60C0
60C0
31C0
0E40
0000
0000
0000
ENDCHAR
STARTCHAR H
ENCODING 72
SWIDTH 508 0
DWIDTH 12 0
BBX 12 24 0 -2
BITMAP
0000
0000
F1E0
60C0
60C0
60C0
60C0
60C0
60C0
60C0
60C0
7FC0
60C0
60C0
60C0
60C0
60C0
60C0
60C0
60C0
F1E0
0000
0000
0000
ENDCHAR
STARTCHAR I
ENCODING 73
SWIDTH 508 0
DWIDTH 12 0
BBX 12 24 0 -2
BITMAP
0000
0000
3F00
0C00
0C00
0C00
0C00
0C00
0C00
0C00
0C00
0C00
0C00
0C00
0C00
0C00
0C00
0C00
0C00
0C00
3F00
0000
0000
0000
ENDCHAR
STARTCHAR J
ENCODING 74
SWIDTH 508 0
DWIDTH 12 0
BBX 12 24 0 -2
BITMAP
0000
0000
07E0
0180
0180
0180
0180
0180
0180
0180
0180
0180
0180
0180
0180
6180
E180
C180
C180
6300
1C00
0000
0000
0000
ENDCHAR
STARTCHAR K
ENCODING 75
SWIDTH 508 0
DWIDTH 12 0
BBX 12 24 0 -2
BITMAP
0000
0000
F1E0
6040
6080
6080
6100
6200
6200
6400
6800
7C00
7C00
6600
6600
6300
6300
6180
6180
60C0
F1E0
0000
0000
0000
ENDCHAR
STARTCHAR L
ENCODING 76
SWIDTH 508 0
DWIDTH 12 0
BBX 12 24 0 -2
BITMAP
0000
0000
F000
6000
6000
6000
6000
6000
6000
6000
6000
6000
6000
6000
6000
6000
6000
6020
6040
60C0
FFC0
0000
0000
0000
ENDCHAR
STARTCHAR M
ENCODING 77
SWIDTH 508 0
DWIDTH 12 0
BBX 12 24 0 -2
BITMAP
0000
0000
E070
6060
60E0
70E0
70E0
7160
5960
5960
5B60
4E60
4E60
4E60
4460
4460
4060
4060
4060
4060
E0F0
0000
0000
0000
ENDCHAR
STARTCHAR N
ENCODING 78
SWIDTH 508 0
DWIDTH 12 0
BBX 12 24 0 -2
BITMAP
0000
0000
E0E0
6040
7040
7040
7040
5840
5840
4C40
4C40
4640
4640
4340
4340
4340
41C0
41C0
40C0
40C0
E040
0000
0000
0000
ENDCHAR
STARTCHAR O
ENCODING 79
SWIDTH 508 0
DWIDTH 12 0
BBX 12 24 0 -2
BITMAP
0000
0000
1F00
60C0
4040
C060
C060
C060
C060
C060
C060
C060
C060
C060
C060
C060
C060
C060
4040
60C0
1F00
0000
0000
0000
ENDCHAR
STARTCHAR P
ENCODING 80
SWIDTH 508 0
DWIDTH 12 0
BBX 12 24 0 -2
BITMAP
0000
0000
FE00
6180
60C0
6060
6060
6060
6060
6060
60C0
6180
7E00
6000
6000
6000
6000
6000
6000
6000
F000
0000
0000
0000
ENDCHAR
STARTCHAR Q
ENCODING 81
SWIDTH 508 0
DWIDTH 12 0
BBX 12 24 0 -2
BITMAP
0000
0000
1E00
6180
4080
C0C0
C0C0
C0C0
C0C0
C0C0
C0C0
C0C0
C0C0
C0C0
C0C0
C0C0
CCC0
D2C0
6280
6380
1E00
0320
01E0
00C0
ENDCHAR
STARTCHAR R
ENCODING 82
SWIDTH 508 0
DWIDTH 12 0
BBX 12 24 0 -2
BITMAP
0000
0000
FE00
6180
6080
60C0
60C0
60C0
60C0
6080
6180
7E00
6200
6100
6180
6180
6180
6180
61A0
61A0
F0C0
0000
0000
0000
ENDCHAR
STARTCHAR S
ENCODING 83
SWIDTH 508 0
DWIDTH 12 0
BBX 12 24 0 -2
BITMAP
0000
0000
1E40
61C0
C0C0
C040
C000
C000
E000
7000
3E00
0F80
01C0
00E0
0060
0060
0060
8060
C0C0
E180
9E00
0000
0000
0000
ENDCHAR
STARTCHAR T
ENCODING 84
SWIDTH 508 0
DWIDTH 12 0
BBX 12 24 0 -2
BITMAP
0000
0000
FFC0
CCC0
8C40
8C40
8C40
0C00
0C00
0C00
0C00
0C00
0C00
0C00
0C00
0C00
0C00
0C00
0C00
0C00
1E00
0000
0000
0000
ENDCHAR
STARTCHAR U
ENCODING 85
SWIDTH 508 0
DWIDTH 12 0
BBX 12 24 0 -2
BITMAP
0000
0000
F0E0
6040
6040
6040
6040
6040
6040
6040
6040
6040
6040
6040
6040
6040
6040
6040
6040
3080
1F00
0000
0000
0000
ENDCHAR
STARTCHAR V
ENCODING 86
SWIDTH 508 0
DWIDTH 12 0
BBX 12 24 0 -2
BITMAP
0000
0000
F0E0
6040
6040
6040
6040
3080
3080
3080
3080
1900
1900
1900
1B00
0A00
0E00
0E00
0400
0400
0400
0000
0000
0000
ENDCHAR
STARTCHAR W
ENCODING 87
SWIDTH 508 0
DWIDTH 12 0
BBX 12 24 0 -2
BITMAP
0000
0000
E060
C020
C020
C020
C020
C020
C620
C620
C620
C620
C620
CF20
CB20
6B40
6B40
7140
71C0
3180
3180
0000
0000
0000
ENDCHAR
STARTCHAR X
ENCODING 88
SWIDTH 508 0
DWIDTH 12 0
BBX 12 24 0 -2
BITMAP
0000
0000
F0E0
6040
6040
3080
3080
1900
1900
0A00
0E00
0400
0E00
0A00
1300
1300
2180
2180
40C0
40C0
E1E0
0000
0000
0000
ENDCHAR
STARTCHAR Y
ENCODING 89
SWIDTH 508 0
DWIDTH 12 0
BBX 12 24 0 -2
BITMAP
0000
0000
F0E0
6040
6040
3080
3080
3080
1900
1900
0F00
0E00
0600
0600
0600
0600
0600
0600
0600
0600
1F80
0000
0000
0000
ENDCHAR
STARTCHAR Z
ENCODING 90
SWIDTH 508 0
DWIDTH 12 0
BBX 12 24 0 -2
BITMAP
0000
0000
7FE0
40C0
40C0
8180
0180
0300
0300
0600
0600
0600
0C00
0C00
1800
1800
3000
3020
6040
60C0
FFC0
0000
0000
0000
ENDCHAR
STARTCHAR bracketleft
ENCODING 91
SWIDTH 508 0
DWIDTH 12 0
BBX 12 24 0 -2
BITMAP
00C0
0380
0E00
0C00
0C00
0C00
0C00
0C00
0C00
0C00
0C00
0C00
0C00
0C00
0C00
0C00
0C00
0C00
0C00
0C00
0C00
0E00
0380
00C0
ENDCHAR
STARTCHAR backslash
ENCODING 92
SWIDTH 508 0
DWIDTH 12 0
BBX 12 24 0 -2
BITMAP
0000
8000
C000
4000
6000
2000
3000
1000
1800
0800
0C00
0400
0600
0200
0300
0100
0180
0080
00C0
0040
0060
0020
0020
0000
ENDCHAR
STARTCHAR bracketright
ENCODING 93
SWIDTH 508 0
DWIDTH 12 0
BBX 12 24 0 -2
BITMAP
6000
7800
1E00
0600
0600
0600
0600
0600
0600
0600
0600
0600
0600
0600
0600
0600
0600
0600
0600
0600
0600
1E00
7800
6000
ENDCHAR
STARTCHAR asciicircum
ENCODING 94
SWIDTH 508 0
DWIDTH 12 0
BBX 12 24 0 -2
BITMAP
0400
0E00
1F00
3B80
60C0
C060
0000
0000
0000
0000
0000
0000
0000
0000
0000
0000
0000
0000
0000
0000
0000
0000
0000
0000
ENDCHAR
STARTCHAR underscore
ENCODING 95
SWIDTH 508 0
DWIDTH 12 0
BBX 12 24 0 -2
BITMAP
0000
0000
0000
0000
0000
0000
0000
0000
0000
0000
0000
0000
0000
0000
0000
0000
0000
0000
0000
0000
0000
0000
FFE0
FFE0
ENDCHAR
STARTCHAR grave
ENCODING 96
SWIDTH 508 0
DWIDTH 12 0
BBX 12 24 0 -2
BITMAP
0000
0000
1C00
0E00
0300
0180
0000
0000
0000
0000
0000
0000
0000
0000
0000
0000
0000
0000
0000
0000
0000
0000
0000
0000
ENDCHAR
STARTCHAR a
ENCODING 97
SWIDTH 508 0
DWIDTH 12 0
BBX 12 24 0 -2
BITMAP
0000
0000
0000
0000
0000
0000
0000
0000
1C00
7300
4180
0180
0180
1F80
6180
C180
C180
C180
C1A0
63A0
3CC0
0000
0000
0000
ENDCHAR
STARTCHAR b
ENCODING 98
SWIDTH 508 0
DWIDTH 12 0
BBX 12 24 0 -2
BITMAP
0000
0000
6000
E000
6000
6000
6000
6000
6E00
7180
60C0
60C0
6060
6060
6060
6060
6060
60C0
60C0
7180
4E00
0000
0000
0000
ENDCHAR
STARTCHAR c
ENCODING 99
SWIDTH 508 0
DWIDTH 12 0
BBX 12 24 0 -2
BITMAP
0000
0000
0000
0000
0000
0000
0000
0000
0E00
3180
60C0
60C0
C000
C000
C000
C000
C000
6000
6040
3180
0E00
0000
0000
0000
ENDCHAR
STARTCHAR d
ENCODING 100
SWIDTH 508 0
DWIDTH 12 0
BBX 12 24 0 -2
BITMAP
0000
0000
00C0
03C0
00C0
00C0
00C0
00C0
0EC0
31C0
60C0
60C0
C0C0
C0C0
C0C0
C0C0
C0C0
60C0
60C0
31C0
0EE0
0000
0000
0000
ENDCHAR
STARTCHAR e
ENCODING 101
SWIDTH 508 0
DWIDTH 12 0
BBX 12 24 0 -2
BITMAP
0000
0000
0000
0000
0000
0000
0000
0000
0E00
3180
60C0
60E0
C060
FFE0
C000
C000
C000
6000
6020
30C0
0F00
0000
0000
0000
ENDCHAR
STARTCHAR f
ENCODING 102
SWIDTH 508 0
DWIDTH 12 0
BBX 12 24 0 -2
BITMAP
0000
0000
01C0
0660
0460
0C00
0C00
0C00
FFC0
0C00
0C00
0C00
0C00
0C00
0C00
0C00
0C00
0C00
0C00
0C00
3F00
0000
0000
0000
ENDCHAR
STARTCHAR g
ENCODING 103
SWIDTH 508 0
DWIDTH 12 0
BBX 12 24 0 -2
BITMAP
0000
0000
0000
0000
0000
0000
0000
0060
0EE0
3180
60C0
60C0
60C0
3180
0E00
1000
3000
1F00
27C0
40E0
C060
C060
60C0
1F00
ENDCHAR
STARTCHAR h
ENCODING 104
SWIDTH 508 0
DWIDTH 12 0
BBX 12 24 0 -2
BITMAP
0000
0000
6000
E000
6000
6000
6000
6000
6F00
7180
60C0
60C0
60C0
60C0
60C0
60C0
60C0
60C0
60C0
60C0
F1E0
0000
0000
0000
ENDCHAR
STARTCHAR i
ENCODING 105
SWIDTH 508 0
DWIDTH 12 0
BBX 12 24 0 -2
BITMAP
0000
0000
1C00
1C00
1C00
0000
0000
0000
3C00
0C00
0C00
0C00
0C00
0C00
0C00
0C00
0C00
0C00
0C00
0C00
3F00
0000
0000
0000
ENDCHAR
STARTCHAR j
ENCODING 106
SWIDTH 508 0
DWIDTH 12 0
BBX 12 24 0 -2
BITMAP
0000
0000
0700
0700
0700
0000
0000
0000
0F00
0300
0300
0300
0300
0300
0300
0300
0300
0300
0300
0300
0300
C300
C600
7C00
ENDCHAR
STARTCHAR k
ENCODING 107
SWIDTH 508 0
DWIDTH 12 0
BBX 12 24 0 -2
BITMAP
0000
0000
6000
E000
6000
6000
6000
6000
61E0
6080
6100
6200
6400
6800
7800
6C00
6600
6300
6180
60C0
F1E0
0000
0000
0000
ENDCHAR
STARTCHAR l
ENCODING 108
SWIDTH 508 0
DWIDTH 12 0
BBX 12 24 0 -2
BITMAP
0000
0000
0C00
3C00
0C00
0C00
0C00
0C00
0C00
0C00
0C00
0C00
0C00
0C00
0C00
0C00
0C00
0C00
0C00
0C00
3F00
0000
0000
0000
ENDCHAR
STARTCHAR m
ENCODING 109
SWIDTH 508 0
DWIDTH 12 0
BBX 12 24 0 -2
BITMAP
0000
0000
0000
0000
0000
0000
0000
0000
6DC0
F660
6660
6660
6660
6660
6660
6660
6660
6660
6660
6660
EF70
0000
0000
0000
ENDCHAR
STARTCHAR n
ENCODING 110
SWIDTH 508 0
DWIDTH 12 0
BBX 12 24 0 -2
BITMAP
0000
0000
0000
0000
0000
0000
0000
0000
6600
F980
60C0
60C0
60C0
60C0
60C0
60C0
60C0
60C0
60C0
60C0
F1E0
0000
0000
0000
ENDCHAR
STARTCHAR o
ENCODING 111
SWIDTH 508 0
DWIDTH 12 0
BBX 12 24 0 -2
BITMAP
0000
0000
0000
0000
0000
0000
0000
0000
0E00
3180
60C0
4040
C060
C060
C060
C060
C060
4040
60C0
3180
0E00
0000
0000
0000
ENDCHAR
STARTCHAR p
ENCODING 112
SWIDTH 508 0
DWIDTH 12 0
BBX 12 24 0 -2
BITMAP
0000
0000
0000
0000
0000
0000
0000
0000
6E00
F180
60C0
6060
6060
6060
6060
6060
60C0
7180
6E00
6000
6000
6000
6000
F000
ENDCHAR
STARTCHAR q
ENCODING 113
SWIDTH 508 0
DWIDTH 12 0
BBX 12 24 0 -2
BITMAP
0000
0000
0000
0000
0000
0000
0000
0000
0E40
31C0
60C0
C0C0
C0C0
C0C0
C0C0
C0C0
60C0
31C0
0EC0
00C0
00C0
00C0
00C0
01E0
ENDCHAR
STARTCHAR r
ENCODING 114
SWIDTH 508 0
DWIDTH 12 0
BBX 12 24 0 -2
BITMAP
0000
0000
0000
0000
0000
0000
0000
0000
31C0
F3E0
3660
3800
3000
3000
3000
3000
3000
3000
3000
3000
FC00
0000
0000
0000
ENDCHAR
STARTCHAR s
ENCODING 115
SWIDTH 508 0
DWIDTH 12 0
BBX 12 24 0 -2
BITMAP
0000
0000
0000
0000
0000
0000
0000
0000
1E40
61C0
C0C0
C040
E000
7C00
1F80
03C0
00E0
8060
C060
E0C0
9F00
0000
0000
0000
ENDCHAR
STARTCHAR t
ENCODING 116
SWIDTH 508 0
DWIDTH 12 0
BBX 12 24 0 -2
BITMAP
0000
0000
1800
1800
1800
1800
1800
1800
FF80
1800
1800
1800
1800
1800
1800
1800
1800
1820
1820
0C40
0780
0000
0000
0000
ENDCHAR
STARTCHAR u
ENCODING 117
SWIDTH 508 0
DWIDTH 12 0
BBX 12 24 0 -2
BITMAP
0000
0000
0000
0000
0000
0000
0000
0000
60C0
E1C0
60C0
60C0
60C0
60C0
60C0
60C0
60C0
60C0
60C0
33C0
1CE0
0000
0000
0000
ENDCHAR
STARTCHAR v
ENCODING 118
SWIDTH 508 0
DWIDTH 12 0
BBX 12 24 0 -2
BITMAP
0000
0000
0000
0000
0000
0000
0000
0000
F0E0
6040
6040
3080
3080
3080
1900
1900
1A00
0E00
0E00
0400
0400
0000
0000
0000
ENDCHAR
STARTCHAR w
ENCODING 119
SWIDTH 508 0
DWIDTH 12 0
BBX 12 24 0 -2
BITMAP
0000
0000
0000
0000
0000
0000
0000
0000
E060
C020
C020
C620
C620
C620
CE20
CB20
CB20
5160
71C0
60C0
2080
0000
0000
0000
ENDCHAR
STARTCHAR x
ENCODING 120
SWIDTH 508 0
DWIDTH 12 0
BBX 12 24 0 -2
BITMAP
0000
0000
0000
0000
0000
0000
0000
0000
F0E0
6040
3080
1900
1900
0E00
0400
0E00
1300
1300
2180
40C0
E1E0
0000
0000
0000
ENDCHAR
STARTCHAR y
ENCODING 121
SWIDTH 508 0
DWIDTH 12 0
BBX 12 24 0 -2
BITMAP
0000
0000
0000
0000
0000
0000
0000
0000
F0E0
6040
6040
3080
3080
1880
1900
0D00
0E00
0600
0200
0400
0400
C800
C800
7000
ENDCHAR
STARTCHAR z
ENCODING 122
SWIDTH 508 0
DWIDTH 12 0
BBX 12 24 0 -2
BITMAP
0000
0000
0000
0000
0000
0000
0000
0000
7FE0
60C0
4180
8180
0300
0600
0400
0C00
1800
3020
3040
6040
FFC0
0000
0000
0000
ENDCHAR
STARTCHAR braceleft
ENCODING 123
SWIDTH 508 0
DWIDTH 12 0
BBX 12 24 0 -2
BITMAP
0040
0080
0080
0180
0180
0180
0180
0180
0180
0100
0200
0400
0200
0100
0180
0180
0180
0180
0180
0180
0180
0080
0080
0040
ENDCHAR
STARTCHAR bar
ENCODING 124
SWIDTH 508 0
DWIDTH 12 0
BBX 12 24 0 -2
BITMAP
0600
0600
0600
0600
0600
0600
0600
0600
0600
0600
0600
0600
0600
0600
0600
0600
0600
0600
0600
0600
0600
0600
0600
0600
ENDCHAR
STARTCHAR braceright
ENCODING 125
SWIDTH 508 0
DWIDTH 12 0
BBX 12 24 0 -2
BITMAP
4000
2000
2000
3000
3000
3000
3000
3000
3000
1000
0800
0400
0800
1000
3000
3000
3000
3000
3000
3000
3000
2000
2000
4000
ENDCHAR
STARTCHAR asciitilde
ENCODING 126
SWIDTH 508 0
DWIDTH 12 0
BBX 12 24 0 -2
BITMAP
3820
7C60
C7C7
8380
0000
0000
0000
0000
0000
0000
0000
0000
0000
0000
0000
0000
0000
0000
0000
0000
0000
0000
0000
0000
ENDCHAR
STARTCHAR afii10051
ENCODING 128
SWIDTH 508 0
DWIDTH 12 0
BBX 12 24 0 -2
BITMAP
0000
0000
FE00
F600
B200
3000
3000
3000
3000
3700
3980
30C0
30C0
30C0
30C0
30C0
30C0
30C0
30C0
30C0
7980
0300
0C00
0000
ENDCHAR
STARTCHAR afii10052
ENCODING 129
SWIDTH 508 0
DWIDTH 12 0
BBX 12 24 0 -2
BITMAP
0380
0600
0800
0000
FFC0
60C0
6040
6020
6000
6000
6000
6000
6000
6000
6000
6000
6000
6000
6000
6000
F000
0000
0000
0000
ENDCHAR
STARTCHAR quotesinglbase
ENCODING 130
SWIDTH 508 0
DWIDTH 12 0
BBX 12 24 0 -2
BITMAP
0000
0000
0000
0000
0000
0000
0000
0000
0000
0000
0000
0000
0000
0000
0000
0000
0000
0000
1C00
1C00
0C00
0C00
0800
1000
ENDCHAR
STARTCHAR afii10100
ENCODING 131
SWIDTH 508 0
DWIDTH 12 0
BBX 12 24 0 -2
BITMAP
0000
0000
0700
0C00
1000
0000
0000
0000
7FC0
30C0
3040
3020
3000
3000
3000
3000
3000
3000
3000
3000
7800
0000
0000
0000
ENDCHAR
STARTCHAR quotedblbase
ENCODING 132
SWIDTH 508 0
DWIDTH 12 0
BBX 12 24 0 -2
BITMAP
0000
0000
0000
0000
0000
0000
0000
0000
0000
0000
0000
0000
0000
0000
0000
0000
0000
0000
7380
7380
3180
3180
2100
4200
ENDCHAR
STARTCHAR ellipsis
ENCODING 133
SWIDTH 508 0
DWIDTH 12 0
BBX 12 24 0 -2
BITMAP
0000
0000
0000
0000
0000
0000
0000
0000
0000
0000
0000
0000
0000
0000
0000
0000
0000
0000
6660
6660
6660
0000
0000
0000
ENDCHAR
STARTCHAR dagger
ENCODING 134
SWIDTH 508 0
DWIDTH 12 0
BBX 12 24 0 -2
BITMAP
0000
0600
0600
0600
0600
0600
7FE0
7FE0
0600
0600
0600
0600
0600
0600
0600
0600
0600
0600
0600
0600
0600
0600
0600
0000
ENDCHAR
STARTCHAR daggerdbl
ENCODING 135
SWIDTH 508 0
DWIDTH 12 0
BBX 12 24 0 -2
BITMAP
0000
0600
0600
0600
0600
0600
7FE0
7FE0
0600
0600
0600
0600
0600
0600
0600
7FE0
7FE0
0600
0600
0600
0600
0600
0600
0000
ENDCHAR
STARTCHAR Euro
ENCODING 136
SWIDTH 508 0
DWIDTH 12 0
BBX 12 24 0 -2
BITMAP
0000
0000
0720
18E0
3060
3020
6000
6000
6000
6000
FF00
6000
FE00
6000
6000
6000
6000
3020
3020
18C0
0700
0000
0000
0000
ENDCHAR
STARTCHAR perthousand
ENCODING 137
SWIDTH 508 0
DWIDTH 12 0
BBX 12 24 0 -2
BITMAP
0000
0000
0000
7000
D800
D800
7010
0030
0060
01C0
0300
0E00
1800
7000
C000
8000
0000
1CE0
37B0
37B0
1CE0
0000
0000
0000
ENDCHAR
STARTCHAR afii10058
ENCODING 138
SWIDTH 508 0
DWIDTH 12 0
BBX 12 24 0 -2
BITMAP
0000
0000
7F00
2600
2600
2600
2600
2600
2600
2600
2600
2700
26C0
2640
2660
2660
2660
2660
A640
A6C0
4700
0000
0000
0000
ENDCHAR
STARTCHAR guilsinglleft
ENCODING 139
SWIDTH 508 0
DWIDTH 12 0
BBX 12 24 0 -2
BITMAP
0000
0000
0080
0180
0100
0300
0200
0600
0400
0C00
0800
1800
1800
0800
0C00
0400
0600
0200
0300
0100
0180
0080
0000
0000
ENDCHAR
STARTCHAR afii10059
ENCODING 140
SWIDTH 508 0
DWIDTH 12 0
BBX 12 24 0 -2
BITMAP
0000
0000
EF00
6600
6600
6600
6600
6600
6600
6600
6600
7F00
66C0
6640
6660
6660
6660
6660
6640
66C0
EF00
0000
0000
0000
ENDCHAR
STARTCHAR afii10061
ENCODING 141
SWIDTH 508 0
DWIDTH 12 0
BBX 12 24 0 -2
BITMAP
0700
0C00
1000
0000
F1E0
6080
6080
6100
6200
6200
6400
6800
7C00
6600
6600
6300
6300
6180
6180
60C0
F1E0
0000
0000
0000
ENDCHAR
STARTCHAR afii10060
ENCODING 142
SWIDTH 508 0
DWIDTH 12 0
BBX 12 24 0 -2
BITMAP
0000
0000
FE00
F600
B200
3000
3000
3000
3000
3700
3980
30C0
30C0
30C0
30C0
30C0
30C0
30C0
30C0
30C0
79E0
0000
0000
0000
ENDCHAR
STARTCHAR afii10145
ENCODING 143
SWIDTH 508 0
DWIDTH 12 0
BBX 12 24 0 -2
BITMAP
0000
0000
F1E0
60C0
60C0
60C0
60C0
60C0
60C0
60C0
60C0
60C0
60C0
60C0
60C0
60C0
60C0
60C0
60C0
60C0
FFE0
0E00
0400
0400
ENDCHAR
STARTCHAR afii10099
ENCODING 144
SWIDTH 508 0
DWIDTH 12 0
BBX 12 24 0 -2
BITMAP
0000
0000
6000
E000
6000
FC00
6000
6000
6F00
7180
60C0
60C0
60C0
60C0
60C0
60C0
60C0
60C0
60C0
60C0
F0C0
00C0
0180
0F00
ENDCHAR
STARTCHAR quoteleft
ENCODING 145
SWIDTH 508 0
DWIDTH 12 0
BBX 12 24 0 -2
BITMAP
1800
3C00
1E00
0700
0180
0000
0000
0000
0000
0000
0000
0000
0000
0000
0000
0000
0000
0000
0000
0000
0000
0000
0000
0000
ENDCHAR
STARTCHAR quoteright
ENCODING 146
SWIDTH 508 0
DWIDTH 12 0
BBX 12 24 0 -2
BITMAP
1C00
1C00
0C00
0C00
0800
1000
0000
0000
0000
0000
0000
0000
0000
0000
0000
0000
0000
0000
0000
0000
0000
0000
0000
0000
ENDCHAR
STARTCHAR quotedblleft
ENCODING 147
SWIDTH 508 0
DWIDTH 12 0
BBX 12 24 0 -2
BITMAP
1080
2100
6300
6300
7380
7380
0000
0000
0000
0000
0000
0000
0000
0000
0000
0000
0000
0000
0000
0000
0000
0000
0000
0000
ENDCHAR
STARTCHAR quotedblright
ENCODING 148
SWIDTH 508 0
DWIDTH 12 0
BBX 12 24 0 -2
BITMAP
7380
7380
3180
3180
2100
4200
0000
0000
0000
0000
0000
0000
0000
0000
0000
0000
0000
0000
0000
0000
0000
0000
0000
0000
ENDCHAR
STARTCHAR bullet
ENCODING 149
SWIDTH 508 0
DWIDTH 12 0
BBX 12 24 0 -2
BITMAP
0000
0000
0000
0000
0000
0000
0000
0000
0E00
1F00
3F80
3F80
3F80
1F00
0E00
0000
0000
0000
0000
0000
0000
0000
0000
0000
ENDCHAR
STARTCHAR endash
ENCODING 150
SWIDTH 508 0
DWIDTH 12 0
BBX 12 24 0 -2
BITMAP
0000
0000
0000
0000
0000
0000
0000
0000
0000
0000
0000
FFE0
FFE0
0000
0000
0000
0000
0000
0000
0000
0000
0000
0000
0000
ENDCHAR
STARTCHAR emdash
ENCODING 151
SWIDTH 508 0
DWIDTH 12 0
BBX 12 24 0 -2
BITMAP
0000
0000
0000
0000
0000
0000
0000
0000
0000
0000
0000
FFF0
FFF0
0000
0000
0000
0000
0000
0000
0000
0000
0000
0000
0000
ENDCHAR
STARTCHAR trademark
ENCODING 153
SWIDTH 508 0
DWIDTH 12 0
BBX 12 24 0 -2
BITMAP
0000
0000
FE30
B770
B7F0
33B0
32B0
3230
3230
3230
7F70
0000
0000
0000
0000
0000
0000
0000
0000
0000
0000
0000
0000
0000
ENDCHAR
STARTCHAR afii10106
ENCODING 154
SWIDTH 508 0
DWIDTH 12 0
BBX 12 24 0 -2
BITMAP
0000
0000
0000
0000
0000
0000
0000
0000
7F00
2600
2600
2600
2600
2600
2780
2640
2660
2660
A660
A640
4780
0000
0000
0000
ENDCHAR
STARTCHAR guilsinglright
ENCODING 155
SWIDTH 508 0
DWIDTH 12 0
BBX 12 24 0 -2
BITMAP
0000
0000
1000
1800
0800
0C00
0400
0600
0200
0300
0100
0180
0180
0100
0300
0200
0600
0400
0C00
0800
1800
1000
0000
0000
ENDCHAR
STARTCHAR afii10107
ENCODING 156
SWIDTH 508 0
DWIDTH 12 0
BBX 12 24 0 -2
BITMAP
0000
0000
0000
0000
0000
0000
0000
0000
EF00
6600
6600
6600
6600
6600
7F80
6640
6660
6660
6660
6640
EF80
0000
0000
0000
ENDCHAR
STARTCHAR afii10109
ENCODING 157
SWIDTH 508 0
DWIDTH 12 0
BBX 12 24 0 -2
BITMAP
0000
0000
0700
0C00
1000
0000
0000
0000
F1E0
6080
6100
6200
6400
6800
7800
6C00
6600
6300
6180
60C0
F1E0
0000
0000
0000
ENDCHAR
STARTCHAR afii10108
ENCODING 158
SWIDTH 508 0
DWIDTH 12 0
BBX 12 24 0 -2
BITMAP
0000
0000
6000
E000
6000
FC00
6000
6000
6F00
7180
60C0
60C0
60C0
60C0
60C0
60C0
60C0
60C0
60C0
60C0
F1E0
0000
0000
0000
ENDCHAR
STARTCHAR afii10193
ENCODING 159
SWIDTH 508 0
DWIDTH 12 0
BBX 12 24 0 -2
BITMAP
0000
0000
0000
0000
0000
0000
0000
0000
F1E0
60C0
60C0
60C0
60C0
60C0
60C0
60C0
60C0
60C0
60C0
60C0
FFE0
0E00
0400
0400
ENDCHAR
STARTCHAR space
ENCODING 160
SWIDTH 508 0
DWIDTH 12 0
BBX 12 24 0 -2
BITMAP
0000
0000
0000
0000
0000
0000
0000
0000
0000
0000
0000
0000
0000
0000
0000
0000
0000
0000
0000
0000
0000
0000
0000
0000
ENDCHAR
STARTCHAR afii10062
ENCODING 161
SWIDTH 508 0
DWIDTH 12 0
BBX 12 24 0 -2
BITMAP
1B00
1B00
EEE0
6040
3040
3080
3080
1900
1900
1900
1A00
0E00
0C00
0C00
0400
0800
0800
0800
D000
D000
6000
0000
0000
0000
ENDCHAR
STARTCHAR afii10110
ENCODING 162
SWIDTH 508 0
DWIDTH 12 0
BBX 12 24 0 -2
BITMAP
0000
0000
0000
0000
1B00
1B00
0E00
0000
F0E0
6040
6040
3080
3080
1880
1900
0D00
0E00
0600
0200
0400
0400
C800
C800
7000
ENDCHAR
STARTCHAR afii10057
ENCODING 163
SWIDTH 508 0
DWIDTH 12 0
BBX 12 24 0 -2
BITMAP
0000
0000
07E0
0180
0180
0180
0180
0180
0180
0180
0180
0180
0180
0180
0180
6180
E180
C180
C180
6300
1C00
0000
0000
0000
ENDCHAR
STARTCHAR currency
ENCODING 164
SWIDTH 508 0
DWIDTH 12 0
BBX 12 24 0 -2
BITMAP
0000
0000
0000
0000
0000
0000
8020
CE60
7FC0
3180
60C0
60C0
60C0
3180
7FC0
CE60
8020
0000
0000
0000
0000
0000
0000
0000
ENDCHAR
STARTCHAR afii10050
ENCODING 165
SWIDTH 508 0
DWIDTH 12 0
BBX 12 24 0 -2
BITMAP
0020
0040
00C0
FFC0
6000
6000
6000
6000
6000
6000
6000
6000
6000
6000
6000
6000
6000
6000
6000
6000
F000
0000
0000
0000
ENDCHAR
STARTCHAR brokenbar
ENCODING 166
SWIDTH 508 0
DWIDTH 12 0
BBX 12 24 0 -2
BITMAP
0000
0000
0600
0600
0600
0600
0600
0600
0600
0600
0000
0000
0000
0600
0600
0600
0600
0600
0600
0600
0600
0000
0000
0000
ENDCHAR
STARTCHAR section
ENCODING 167
SWIDTH 508 0
DWIDTH 12 0
BBX 12 24 0 -2
BITMAP
0000
0000
0F00
30C0
6060
6060
6000
3000
1F00
30C0
6060
6060
6060
30C0
0F80
00C0
0060
6060
6060
30C0
0F00
0000
0000
0000
ENDCHAR
STARTCHAR afii10023
ENCODING 168
SWIDTH 508 0
DWIDTH 12 0
BBX 12 24 0 -2
BITMAP
3300
3300
0000
0000
ffc0
60c0
6040
6020
6000
6100
6100
6300
7f00
6300
6100
6100
6000
6020
6040
60c0
ffc0
0000
0000
0000
ENDCHAR
STARTCHAR copyright
ENCODING 169
SWIDTH 508 0
DWIDTH 12 0
BBX 12 24 0 -2
BITMAP
0000
0000
0F00
30C0
6060
4020
CF30
98D0
B070
E070
E010
E010
E010
E010
B030
98D0
CF30
4020
6060
30C0
0F00
0000
0000
0000
ENDCHAR
STARTCHAR afii10053
ENCODING 170
SWIDTH 508 0
DWIDTH 12 0
BBX 12 24 0 -2
BITMAP
0000
0000
0720
18E0
3060
3020
6000
6000
6000
6000
6000
7F00
6000
6000
6000
6000
6000
3020
3020
18C0
0700
0000
0000
0000
ENDCHAR
STARTCHAR guillemotleft
ENCODING 171
SWIDTH 508 0
DWIDTH 12 0
BBX 12 24 0 -2
BITMAP
0000
0000
0220
0660
0440
0CC0
0880
1980
1100
3300
2200
6600
6600
2200
3300
1100
1980
0880
0CC0
0440
0660
0220
0000
0000
ENDCHAR
STARTCHAR logicalnot
ENCODING 172
SWIDTH 508 0
DWIDTH 12 0
BBX 12 24 0 -2
BITMAP
0000
0000
0000
0000
0000
0000
0000
0000
0000
0000
FFC0
FFC0
00C0
00C0
00C0
0000
0000
0000
0000
0000
0000
0000
0000
0000
ENDCHAR
STARTCHAR hyphen
ENCODING 173
SWIDTH 508 0
DWIDTH 12 0
BBX 12 24 0 -2
BITMAP
0000
0000
0000
0000
0000
0000
0000
0000
0000
0000
FFC0
FFC0
0000
0000
0000
0000
0000
0000
0000
0000
0000
0000
0000
0000
ENDCHAR
STARTCHAR registered
ENCODING 174
SWIDTH 508 0
DWIDTH 12 0
BBX 12 24 0 -2
BITMAP
0000
0000
0F00
30C0
6060
4020
DF30
B090
B0D0
B0D0
B0D0
BF90
B110
B090
B0D0
B0D0
F0F0
4020
6060
30C0
0F00
0000
0000
0000
ENDCHAR
STARTCHAR afii10056
ENCODING 175
SWIDTH 508 0
DWIDTH 12 0
BBX 12 24 0 -2
BITMAP
3300
3300
0000
0000
3f00
0c00
0c00
0c00
0c00
0c00
0c00
0c00
0c00
0c00
0c00
0c00
0c00
0c00
0c00
0c00
3f00
0000
0000
0000
ENDCHAR
STARTCHAR degree
ENCODING 176
SWIDTH 508 0
DWIDTH 12 0
BBX 12 24 0 -2
BITMAP
0000
0000
0E00
1B00
3180
3180
1B00
0E00
0000
0000
0000
0000
0000
0000
0000
0000
0000
0000
0000
0000
0000
0000
0000
0000
ENDCHAR
STARTCHAR plusminus
ENCODING 177
SWIDTH 508 0
DWIDTH 12 0
BBX 12 24 0 -2
BITMAP
0000
0000
0000
0000
0000
0000
0000
0600
0600
0600
0600
7FE0
7FE0
0600
0600
0600
0600
0000
7FE0
7FE0
0000
0000
0000
0000
ENDCHAR
STARTCHAR afii10055
ENCODING 178
SWIDTH 508 0
DWIDTH 12 0
BBX 12 24 0 -2
BITMAP
0000
0000
3F00
0C00
0C00
0C00
0C00
0C00
0C00
0C00
0C00
0C00
0C00
0C00
0C00
0C00
0C00
0C00
0C00
0C00
3F00
0000
0000
0000
ENDCHAR
STARTCHAR afii10103
ENCODING 179
SWIDTH 508 0
DWIDTH 12 0
BBX 12 24 0 -2
BITMAP
0000
0000
1C00
1C00
1C00
0000
0000
0000
3C00
0C00
0C00
0C00
0C00
0C00
0C00
0C00
0C00
0C00
0C00
0C00
3F00
0000
0000
0000
ENDCHAR
STARTCHAR afii10098
ENCODING 180
SWIDTH 508 0
DWIDTH 12 0
BBX 12 24 0 -2
BITMAP
0000
0000
0000
0000
0000
0020
0040
00C0
7FC0
3000
3000
3000
3000
3000
3000
3000
3000
3000
3000
3000
7800
0000
0000
0000
ENDCHAR
STARTCHAR mu
ENCODING 181
SWIDTH 508 0
DWIDTH 12 0
BBX 12 24 0 -2
BITMAP
0000
0000
0000
0000
0000
0000
0000
0000
0000
0000
0000
0000
0C60
0C60
0840
08C0
1080
1080
3180
2EA0
60E0
C000
C000
C000
ENDCHAR
STARTCHAR paragraph
ENCODING 182
SWIDTH 508 0
DWIDTH 12 0
BBX 12 24 0 -2
BITMAP
0000
0000
1FF0
3F40
7F40
7F40
FF40
FF40
FF40
7F40
3F40
0F40
0140
0140
0140
0140
0140
0140
0140
0140
0770
0000
0000
0000
ENDCHAR
STARTCHAR periodcentered
ENCODING 183
SWIDTH 508 0
DWIDTH 12 0
BBX 12 24 0 -2
BITMAP
0000
0000
0000
0000
0000
0000
0000
0000
0000
0000
0E00
0E00
0E00
0000
0000
0000
0000
0000
0000
0000
0000
0000
0000
0000
ENDCHAR
STARTCHAR afii10071
ENCODING 184
SWIDTH 508 0
DWIDTH 12 0
BBX 12 24 0 -2
BITMAP
0000
0000
0000
0000
3180
3180
0000
0000
0e00
3180
60c0
60e0
c060
ffe0
c000
c000
c000
6000
6020
30c0
0f00
0000
0000
0000
ENDCHAR
STARTCHAR afii61352
ENCODING 185
SWIDTH 508 0
DWIDTH 12 0
BBX 12 24 0 -2
BITMAP
0000
0000
C700
4200
6200
6200
6200
7200
7200
7200
5A00
5A00
5A60
4A50
4E50
4E50
4630
4600
4670
4200
E200
0000
0000
0000
ENDCHAR
STARTCHAR afii10101
ENCODING 186
SWIDTH 508 0
DWIDTH 12 0
BBX 12 24 0 -2
BITMAP
0000
0000
0000
0000
0000
0000
0000
0000
0E00
3180
60C0
60C0
C000
C000
FC00
C000
C000
6000
6040
3180
0E00
0000
0000
0000
ENDCHAR
STARTCHAR guillemotright
ENCODING 187
SWIDTH 508 0
DWIDTH 12 0
BBX 12 24 0 -2
BITMAP
0000
0000
4400
6600
2200
3300
1100
1980
0880
0CC0
0440
0660
0660
0440
0CC0
0880
1980
1100
3300
2200
6600
4400
0000
0000
ENDCHAR
STARTCHAR afii10105
ENCODING 188
SWIDTH 508 0
DWIDTH 12 0
BBX 12 24 0 -2
BITMAP
0000
0000
0700
0700
0700
0000
0000
0000
0F00
0300
0300
0300
0300
0300
0300
0300
0300
0300
0300
0300
0300
C300
C600
7C00
ENDCHAR
STARTCHAR afii10054
ENCODING 189
SWIDTH 508 0
DWIDTH 12 0
BBX 12 24 0 -2
BITMAP
0000
0000
1E40
61C0
C0C0
C040
C000
C000
E000
7000
3E00
0F80
01C0
00E0
0060
0060
0060
8060
C0C0
E180
9E00
0000
0000
0000
ENDCHAR
STARTCHAR afii10102
ENCODING 190
SWIDTH 508 0
DWIDTH 12 0
BBX 12 24 0 -2
BITMAP
0000
0000
0000
0000
0000
0000
0000
0000
1E40
61C0
C0C0
C040
E000
7C00
1F80
03C0
00E0
8060
C060
E0C0
9F00
0000
0000
0000
ENDCHAR
STARTCHAR afii10104
ENCODING 191
SWIDTH 508 0
DWIDTH 12 0
BBX 12 24 0 -2
BITMAP
0000
0000
0000
0000
3300
3300
0000
0000
3c00
0c00
0c00
0c00
0c00
0c00
0c00
0c00
0c00
0c00
0c00
0c00
ffc0
0000
0000
0000
ENDCHAR
STARTCHAR afii10017
ENCODING 192
SWIDTH 508 0
DWIDTH 12 0
BBX 12 24 0 -2
BITMAP
0000
0000
0600
0600
0600
0B00
0B00
0B00
0980
1180
1180
1180
20C0
20C0
3FC0
20C0
4060
4060
4060
4060
E0F0
0000
0000
0000
ENDCHAR
STARTCHAR afii10018
ENCODING 193
SWIDTH 508 0
DWIDTH 12 0
BBX 12 24 0 -2
BITMAP
0000
0000
FFC0
60C0
6040
6020
6000
6000
6000
6000
7E00
6180
60C0
6060
6060
6060
6060
6060
60C0
6180
FE00
0000
0000
0000
ENDCHAR
STARTCHAR afii10019
ENCODING 194
SWIDTH 508 0
DWIDTH 12 0
BBX 12 24 0 -2
BITMAP
0000
0000
FE00
6180
60C0
60C0
60C0
60C0
60C0
6080
6100
7E00
6180
60C0
6060
6060
6060
6060
60C0
6180
FE00
0000
0000
0000
ENDCHAR
STARTCHAR afii10020
ENCODING 195
SWIDTH 508 0
DWIDTH 12 0
BBX 12 24 0 -2
BITMAP
0000
0000
FFC0
60C0
6040
6020
6000
6000
6000
6000
6000
6000
6000
6000
6000
6000
6000
6000
6000
6000
F000
0000
0000
0000
ENDCHAR
STARTCHAR afii10021
ENCODING 196
SWIDTH 508 0
DWIDTH 12 0
BBX 12 24 0 -2
BITMAP
0000
0000
3FE0
10C0
10C0
10C0
10C0
10C0
10C0
10C0
10C0
10C0
10C0
10C0
10C0
10C0
20C0
20C0
20C0
40C0
FFE0
C060
8020
8020
ENDCHAR
STARTCHAR afii10022
ENCODING 197
SWIDTH 508 0
DWIDTH 12 0
BBX 12 24 0 -2
BITMAP
0000
0000
FFC0
60C0
6040
6020
6000
6000
6100
6100
6300
7F00
6300
6100
6100
6000
6000
6020
6040
60C0
FFC0
0000
0000
0000
ENDCHAR
STARTCHAR afii10024
ENCODING 198
SWIDTH 508 0
DWIDTH 12 0
BBX 12 24 0 -2
BITMAP
0000
0000
EF70
4620
4620
2640
2640
2640
1680
1680
0F00
0F00
1F80
1F80
36C0
36C0
36C0
6660
6660
6660
EF70
0000
0000
0000
ENDCHAR
STARTCHAR afii10025
ENCODING 199
SWIDTH 508 0
DWIDTH 12 0
BBX 12 24 0 -2
BITMAP
0000
0000
9E00
E180
C0C0
80C0
00C0
00C0
00C0
0080
0100
1E00
0180
00C0
0060
0060
0060
8060
80C0
6180
1E00
0000
0000
0000
ENDCHAR
STARTCHAR afii10026
ENCODING 200
SWIDTH 508 0
DWIDTH 12 0
BBX 12 24 0 -2
BITMAP
0000
0000
F1E0
60C0
61C0
61C0
63C0
62C0
62C0
66C0
64C0
64C0
64C0
6CC0
68C0
68C0
78C0
70C0
70C0
60C0
F1E0
0000
0000
0000
ENDCHAR
STARTCHAR afii10027
ENCODING 201
SWIDTH 508 0
DWIDTH 12 0
BBX 12 24 0 -2
BITMAP
1B00
1B00
EEE0
60C0
61C0
61C0
63C0
62C0
62C0
66C0
64C0
64C0
64C0
6CC0
68C0
68C0
78C0
70C0
70C0
60C0
F1E0
0000
0000
0000
ENDCHAR
STARTCHAR afii10028
ENCODING 202
SWIDTH 508 0
DWIDTH 12 0
BBX 12 24 0 -2
BITMAP
0000
0000
F1E0
6040
6080
6080
6100
6200
6200
6400
6800
7C00
7C00
6600
6600
6300
6300
6180
6180
60C0
F1E0
0000
0000
0000
ENDCHAR
STARTCHAR afii10029
ENCODING 203
SWIDTH 508 0
DWIDTH 12 0
BBX 12 24 0 -2
BITMAP
0000
0000
3FE0
10C0
10C0
10C0
10C0
10C0
10C0
10C0
10C0
10C0
10C0
10C0
10C0
10C0
10C0
10C0
D0C0
D0C0
61E0
0000
0000
0000
ENDCHAR
STARTCHAR afii10030
ENCODING 204
SWIDTH 508 0
DWIDTH 12 0
BBX 12 24 0 -2
BITMAP
0000
0000
E070
6060
60E0
70E0
70E0
7160
5960
5960
5B60
4E60
4E60
4E60
4460
4460
4060
4060
4060
4060
E0F0
0000
0000
0000
ENDCHAR
STARTCHAR afii10031
ENCODING 205
SWIDTH 508 0
DWIDTH 12 0
BBX 12 24 0 -2
BITMAP
0000
0000
F1E0
60C0
60C0
60C0
60C0
60C0
60C0
60C0
60C0
7FC0
60C0
60C0
60C0
60C0
60C0
60C0
60C0
60C0
F1E0
0000
0000
0000
ENDCHAR
STARTCHAR afii10032
ENCODING 206
SWIDTH 508 0
DWIDTH 12 0
BBX 12 24 0 -2
BITMAP
0000
0000
1F00
60C0
4040
C060
C060
C060
C060
C060
C060
C060
C060
C060
C060
C060
C060
C060
4040
60C0
1F00
0000
0000
0000
ENDCHAR
STARTCHAR afii10033
ENCODING 207
SWIDTH 508 0
DWIDTH 12 0
BBX 12 24 0 -2
BITMAP
0000
0000
FFE0
60C0
60C0
60C0
60C0
60C0
60C0
60C0
60C0
60C0
60C0
60C0
60C0
60C0
60C0
60C0
60C0
60C0
F1E0
0000
0000
0000
ENDCHAR
STARTCHAR afii10034
ENCODING 208
SWIDTH 508 0
DWIDTH 12 0
BBX 12 24 0 -2
BITMAP
0000
0000
FE00
6180
60C0
6060
6060
6060
6060
6060
60C0
6180
7E00
6000
6000
6000
6000
6000
6000
6000
F000
0000
0000
0000
ENDCHAR
STARTCHAR afii10035
ENCODING 209
SWIDTH 508 0
DWIDTH 12 0
BBX 12 24 0 -2
BITMAP
0000
0000
0720
18E0
3060
3020
6000
6000
6000
6000
6000
6000
6000
6000
6000
6000
6000
3020
3020
18C0
0700
0000
0000
0000
ENDCHAR
STARTCHAR afii10036
ENCODING 210
SWIDTH 508 0
DWIDTH 12 0
BBX 12 24 0 -2
BITMAP
0000
0000
FFC0
CCC0
8C40
8C40
8C40
0C00
0C00
0C00
0C00
0C00
0C00
0C00
0C00
0C00
0C00
0C00
0C00
0C00
1E00
0000
0000
0000
ENDCHAR
STARTCHAR afii10037
ENCODING 211
SWIDTH 508 0
DWIDTH 12 0
BBX 12 24 0 -2
BITMAP
0000
0000
F0E0
6040
3040
3080
3080
1900
1900
1900
1A00
0E00
0C00
0C00
0400
0800
0800
0800
D000
D000
6000
0000
0000
0000
ENDCHAR
STARTCHAR afii10038
ENCODING 212
SWIDTH 508 0
DWIDTH 12 0
BBX 12 24 0 -2
BITMAP
0000
0000
1F80
0600
0600
1F80
6660
4620
C630
C630
C630
C630
C630
C630
C630
4620
6660
1F80
0600
0600
1F80
0000
0000
0000
ENDCHAR
STARTCHAR afii10039
ENCODING 213
SWIDTH 508 0
DWIDTH 12 0
BBX 12 24 0 -2
BITMAP
0000
0000
F0E0
6040
6040
3080
3080
1900
1900
0A00
0E00
0400
0E00
0A00
1300
1300
2180
2180
40C0
40C0
E1E0
0000
0000
0000
ENDCHAR
STARTCHAR afii10040
ENCODING 214
SWIDTH 508 0
DWIDTH 12 0
BBX 12 24 0 -2
BITMAP
0000
0000
F1E0
60C0
60C0
60C0
60C0
60C0
60C0
60C0
60C0
60C0
60C0
60C0
60C0
60C0
60C0
60C0
60C0
60C0
FFE0
0060
0020
0010
ENDCHAR
STARTCHAR afii10041
ENCODING 215
SWIDTH 508 0
DWIDTH 12 0
BBX 12 24 0 -2
BITMAP
0000
0000
F1E0
60C0
60C0
60C0
60C0
60C0
60C0
60C0
60C0
60C0
31C0
1EC0
00C0
00C0
00C0
00C0
00C0
00C0
01E0
0000
0000
0000
ENDCHAR
STARTCHAR afii10042
ENCODING 216
SWIDTH 508 0
DWIDTH 12 0
BBX 12 24 0 -2
BITMAP
0000
0000
EF70
6660
6660
6660
6660
6660
6660
6660
6660
6660
6660
6660
6660
6660
6660
6660
6660
6660
FFF0
0000
0000
0000
ENDCHAR
STARTCHAR afii10043
ENCODING 217
SWIDTH 508 0
DWIDTH 12 0
BBX 12 24 0 -2
BITMAP
0000
0000
EF70
6660
6660
6660
6660
6660
6660
6660
6660
6660
6660
6660
6660
6660
6660
6660
6660
6660
FFF0
0030
0010
0010
ENDCHAR
STARTCHAR afii10044
ENCODING 218
SWIDTH 508 0
DWIDTH 12 0
BBX 12 24 0 -2
BITMAP
0000
0000
FC00
D800
9800
9800
1800
1800
1800
1800
1800
1F80
18C0
1840
1860
1860
1860
1860
1840
18C0
3F80
0000
0000
0000
ENDCHAR
STARTCHAR afii10045
ENCODING 219
SWIDTH 508 0
DWIDTH 12 0
BBX 12 24 0 -2
BITMAP
0000
0000
F0F0
6060
6060
6060
6060
6060
6060
6060
6060
7C60
6360
6160
61A0
61A0
61A0
61A0
6160
6360
FCF0
0000
0000
0000
ENDCHAR
STARTCHAR afii10046
ENCODING 220
SWIDTH 508 0
DWIDTH 12 0
BBX 12 24 0 -2
BITMAP
0000
0000
F000
6000
6000
6000
6000
6000
6000
6000
6000
7E00
6180
60C0
6060
6060
6060
6060
60C0
6180
FE00
0000
0000
0000
ENDCHAR
STARTCHAR afii10047
ENCODING 221
SWIDTH 508 0
DWIDTH 12 0
BBX 12 24 0 -2
BITMAP
0000
0000
4E00
7180
60C0
40C0
0060
0060
0060
0060
0060
0FE0
0060
0060
0060
0060
0060
40C0
40C0
3180
0E00
0000
0000
0000
ENDCHAR
STARTCHAR afii10048
ENCODING 222
SWIDTH 508 0
DWIDTH 12 0
BBX 12 24 0 -2
BITMAP
0000
0000
E300
4CC0
4840
5860
5860
5860
5860
5860
5860
7860
5860
5860
5860
5860
5860
5860
4840
4CC0
E300
0000
0000
0000
ENDCHAR
STARTCHAR afii10049
ENCODING 223
SWIDTH 508 0
DWIDTH 12 0
BBX 12 24 0 -2
BITMAP
0000
0000
0FE0
30C0
20C0
60C0
60C0
60C0
60C0
20C0
30C0
0FC0
08C0
10C0
30C0
30C0
30C0
30C0
B0C0
B0C0
61E0
0000
0000
0000
ENDCHAR
STARTCHAR afii10065
ENCODING 224
SWIDTH 508 0
DWIDTH 12 0
BBX 12 24 0 -2
BITMAP
0000
0000
0000
0000
0000
0000
0000
0000
1C00
7300
4180
0180
0180
1F80
6180
C180
C180
C180
C1A0
63A0
3CC0
0000
0000
0000
ENDCHAR
STARTCHAR afii10066
ENCODING 225
SWIDTH 508 0
DWIDTH 12 0
BBX 12 24 0 -2
BITMAP
0000
0000
0040
0780
1800
3000
2000
6000
6E00
F180
C0C0
C040
C060
C060
C060
C060
C060
4040
60C0
3180
0E00
0000
0000
0000
ENDCHAR
STARTCHAR afii10067
ENCODING 226
SWIDTH 508 0
DWIDTH 12 0
BBX 12 24 0 -2
BITMAP
0000
0000
0000
0000
0000
0000
0000
0000
FE00
6180
60C0
60C0
60C0
6080
7F00
60C0
6060
6060
6060
60C0
FF00
0000
0000
0000
ENDCHAR
STARTCHAR afii10068
ENCODING 227
SWIDTH 508 0
DWIDTH 12 0
BBX 12 24 0 -2
BITMAP
0000
0000
0000
0000
0000
0000
0000
0000
7FC0
30C0
3040
3020
3000
3000
3000
3000
3000
3000
3000
3000
7800
0000
0000
0000
ENDCHAR
STARTCHAR afii10069
ENCODING 228
SWIDTH 508 0
DWIDTH 12 0
BBX 12 24 0 -2
BITMAP
0000
0000
0000
0000
0000
0000
0000
0000
3FE0
10C0
10C0
10C0
10C0
10C0
10C0
10C0
20C0
20C0
20C0
40C0
FFE0
C060
8020
8020
ENDCHAR
STARTCHAR afii10070
ENCODING 229
SWIDTH 508 0
DWIDTH 12 0
BBX 12 24 0 -2
BITMAP
0000
0000
0000
0000
0000
0000
0000
0000
0E00
3180
60C0
60E0
C060
FFE0
C000
C000
C000
6000
6020
30C0
0F00
0000
0000
0000
ENDCHAR
STARTCHAR afii10072
ENCODING 230
SWIDTH 508 0
DWIDTH 12 0
BBX 12 24 0 -2
BITMAP
0000
0000
0000
0000
0000
0000
0000
0000
CF30
4620
2640
2640
1680
0F00
1F80
1F80
36C0
36C0
6660
6660
EF70
0000
0000
0000
ENDCHAR
STARTCHAR afii10073
ENCODING 231
SWIDTH 508 0
DWIDTH 12 0
BBX 12 24 0 -2
BITMAP
0000
0000
0000
0000
0000
0000
0000
0000
1E00
6180
C0C0
C0C0
00C0
0080
0F00
00C0
0060
0060
8060
60C0
1F00
0000
0000
0000
ENDCHAR
STARTCHAR afii10074
ENCODING 232
SWIDTH 508 0
DWIDTH 12 0
BBX 12 24 0 -2
BITMAP
0000
0000
0000
0000
0000
0000
0000
0000
F1E0
60C0
61C0
63C0
62C0
66C0
64C0
6CC0
68C0
78C0
70C0
60C0
F1E0
0000
0000
0000
ENDCHAR
STARTCHAR afii10075
ENCODING 233
SWIDTH 508 0
DWIDTH 12 0
BBX 12 24 0 -2
BITMAP
0000
0000
0000
0000
1B00
1B00
0E00
0000
F1E0
60C0
61C0
63C0
62C0
66C0
64C0
6CC0
68C0
78C0
70C0
60C0
F1E0
0000
0000
0000
ENDCHAR
STARTCHAR afii10076
ENCODING 234
SWIDTH 508 0
DWIDTH 12 0
BBX 12 24 0 -2
BITMAP
0000
0000
0000
0000
0000
0000
0000
0000
F1E0
6080
6100
6200
6400
6800
7800
6C00
6600
6300
6180
60C0
F1E0
0000
0000
0000
ENDCHAR
STARTCHAR afii10077
ENCODING 235
SWIDTH 508 0
DWIDTH 12 0
BBX 12 24 0 -2
BITMAP
0000
0000
0000
0000
0000
0000
0000
0000
3FE0
10C0
10C0
10C0
10C0
10C0
10C0
10C0
10C0
10C0
D0C0
D0C0
61E0
0000
0000
0000
ENDCHAR
STARTCHAR afii10078
ENCODING 236
SWIDTH 508 0
DWIDTH 12 0
BBX 12 24 0 -2
BITMAP
0000
0000
0000
0000
0000
0000
0000
0000
E070
6060
70E0
70E0
5960
5960
5960
4E60
4E60
4460
4460
4060
E0F0
0000
0000
0000
ENDCHAR
STARTCHAR afii10079
ENCODING 237
SWIDTH 508 0
DWIDTH 12 0
BBX 12 24 0 -2
BITMAP
0000
0000
0000
0000
0000
0000
0000
0000
F1E0
60C0
60C0
60C0
60C0
60C0
7FC0
60C0
60C0
60C0
60C0
60C0
F1E0
0000
0000
0000
ENDCHAR
STARTCHAR afii10080
ENCODING 238
SWIDTH 508 0
DWIDTH 12 0
BBX 12 24 0 -2
BITMAP
0000
0000
0000
0000
0000
0000
0000
0000
0E00
3180
60C0
4040
C060
C060
C060
C060
C060
4040
60C0
3180
0E00
0000
0000
0000
ENDCHAR
STARTCHAR afii10081
ENCODING 239
SWIDTH 508 0
DWIDTH 12 0
BBX 12 24 0 -2
BITMAP
0000
0000
0000
0000
0000
0000
0000
0000
FFE0
60C0
60C0
60C0
60C0
60C0
60C0
60C0
60C0
60C0
60C0
60C0
F1E0
0000
0000
0000
ENDCHAR
STARTCHAR afii10082
ENCODING 240
SWIDTH 508 0
DWIDTH 12 0
BBX 12 24 0 -2
BITMAP
0000
0000
0000
0000
0000
0000
0000
0000
6E00
F180
60C0
6060
6060
6060
6060
6060
60C0
7180
6E00
6000
6000
6000
6000
F000
ENDCHAR
STARTCHAR afii10083
ENCODING 241
SWIDTH 508 0
DWIDTH 12 0
BBX 12 24 0 -2
BITMAP
0000
0000
0000
0000
0000
0000
0000
0000
0E00
3180
60C0
60C0
C000
C000
C000
C000
C000
6000
6040
3180
0E00
0000
0000
0000
ENDCHAR
STARTCHAR afii10084
ENCODING 242
SWIDTH 508 0
DWIDTH 12 0
BBX 12 24 0 -2
BITMAP
0000
0000
0000
0000
0000
0000
0000
0000
FFC0
CCC0
8C40
8C40
0C00
0C00
0C00
0C00
0C00
0C00
0C00
0C00
1E00
0000
0000
0000
ENDCHAR
STARTCHAR afii10085
ENCODING 243
SWIDTH 508 0
DWIDTH 12 0
BBX 12 24 0 -2
BITMAP
0000
0000
0000
0000
0000
0000
0000
0000
F0E0
6040
6040
3080
3080
1880
1900
0D00
0E00
0600
0200
0400
0400
C800
C800
7000
ENDCHAR
STARTCHAR afii10086
ENCODING 244
SWIDTH 508 0
DWIDTH 12 0
BBX 12 24 0 -2
BITMAP
0000
0000
0E00
0600
0600
0600
0600
0600
1F80
6660
4620
C630
C630
C630
C630
C630
4620
6660
1F80
0600
0600
0600
0600
0F00
ENDCHAR
STARTCHAR afii10087
ENCODING 245
SWIDTH 508 0
DWIDTH 12 0
BBX 12 24 0 -2
BITMAP
0000
0000
0000
0000
0000
0000
0000
0000
F0E0
6040
3080
1900
1900
0E00
0400
0E00
1300
1300
2180
40C0
E1E0
0000
0000
0000
ENDCHAR
STARTCHAR afii10088
ENCODING 246
SWIDTH 508 0
DWIDTH 12 0
BBX 12 24 0 -2
BITMAP
0000
0000
0000
0000
0000
0000
0000
0000
F1E0
60C0
60C0
60C0
60C0
60C0
60C0
60C0
60C0
60C0
60C0
60C0
FFE0
0060
0020
0010
ENDCHAR
STARTCHAR afii10089
ENCODING 247
SWIDTH 508 0
DWIDTH 12 0
BBX 12 24 0 -2
BITMAP
0000
0000
0000
0000
0000
0000
0000
0000
F1E0
60C0
60C0
60C0
60C0
60C0
60C0
31C0
1EC0
00C0
00C0
00C0
01E0
0000
0000
0000
ENDCHAR
STARTCHAR afii10090
ENCODING 248
SWIDTH 508 0
DWIDTH 12 0
BBX 12 24 0 -2
BITMAP
0000
0000
0000
0000
0000
0000
0000
0000
EF70
6660
6660
6660
6660
6660
6660
6660
6660
6660
6660
6660
FFF0
0000
0000
0000
ENDCHAR
STARTCHAR afii10091
ENCODING 249
SWIDTH 508 0
DWIDTH 12 0
BBX 12 24 0 -2
BITMAP
0000
0000
0000
0000
0000
0000
0000
0000
EF70
6660
6660
6660
6660
6660
6660
6660
6660
6660
6660
6660
FFF0
0030
0010
0010
ENDCHAR
STARTCHAR afii10092
ENCODING 250
SWIDTH 508 0
DWIDTH 12 0
BBX 12 24 0 -2
BITMAP
0000
0000
0000
0000
0000
0000
0000
0000
FC00
D800
9800
9800
1800
1800
1F00
18C0
1860
1860
1860
18C0
3F00
0000
0000
0000
ENDCHAR
STARTCHAR afii10093
ENCODING 251
SWIDTH 508 0
DWIDTH 12 0
BBX 12 24 0 -2
BITMAP
0000
0000
0000
0000
0000
0000
0000
0000
F0F0
6060
6060
6060
6060
6060
7C60
6360
61A0
61A0
61A0
6360
FCF0
0000
0000
0000
ENDCHAR
STARTCHAR afii10094
ENCODING 252
SWIDTH 508 0
DWIDTH 12 0
BBX 12 24 0 -2
BITMAP
0000
0000
0000
0000
0000
0000
0000
0000
F000
6000
6000
6000
6000
6000
7F00
60C0
6060
6060
6060
60C0
FF00
0000
0000
0000
ENDCHAR
STARTCHAR afii10095
ENCODING 253
SWIDTH 508 0
DWIDTH 12 0
BBX 12 24 0 -2
BITMAP
0000
0000
0000
0000
0000
0000
0000
0000
1C00
6300
C180
C180
00C0
00C0
0FC0
00C0
00C0
0180
8180
6300
1C00
0000
0000
0000
ENDCHAR
STARTCHAR afii10096
ENCODING 254
SWIDTH 508 0
DWIDTH 12 0
BBX 12 24 0 -2
BITMAP
0000
0000
0000
0000
0000
0000
0000
0000
E380
4C60
4820
5830
5830
5830
7830
5830
5830
5830
4820
4C60
E380
0000
0000
0000
ENDCHAR
STARTCHAR afii10097
ENCODING 255
SWIDTH 508 0
DWIDTH 12 0
BBX 12 24 0 -2
BITMAP
0000
0000
0000
0000
0000
0000
0000
0000
0FE0
30C0
60C0
60C0
60C0
30C0
0FC0
08C0
10C0
30C0
B0C0
B0C0
61E0
0000
0000
0000
ENDCHAR
STARTCHAR tilde
ENCODING -1
SWIDTH 508 0
DWIDTH 12 0
BBX 12 24 0 -2
BITMAP
1CC0
6700
0000
0000
0000
0000
0000
0000
0000
0000
0000
0000
0000
0000
0000
0000
0000
0000
0000
0000
0000
0000
0000
0000
ENDCHAR
STARTCHAR florin
ENCODING -1
SWIDTH 508 0
DWIDTH 12 0
BBX 12 24 0 -2
BITMAP
0000
0000
01C0
0660
0460
0C00
0C00
0C00
0C00
0C00
0C00
7F80
0C00
0C00
0C00
0C00
0C00
0C00
0C00
0C00
0C00
CC00
C800
7000
ENDCHAR
STARTCHAR circumflex
ENCODING -1
SWIDTH 508 0
DWIDTH 12 0
BBX 12 24 0 -2
BITMAP
0000
0000
0C00
1200
3300
6180
0000
0000
0000
0000
0000
0000
0000
0000
0000
0000
0000
0000
0000
0000
0000
0000
0000
0000
ENDCHAR
STARTCHAR OE
ENCODING -1
SWIDTH 508 0
DWIDTH 12 0
BBX 12 24 0 -2
BITMAP
0000
0000
1FF0
6330
4310
C300
C300
C300
C320
C320
C360
C3E0
C360
C320
C320
C300
C300
C300
4310
6330
1FF0
0000
0000
0000
ENDCHAR
STARTCHAR oe
ENCODING -1
SWIDTH 508 0
DWIDTH 12 0
BBX 12 24 0 -2
BITMAP
0000
0000
0000
0000
0000
0000
0000
0000
3180
4A40
4460
C460
C460
CFE0
C400
C400
C400
C460
4460
4A60
31C0
0000
0000
0000
ENDCHAR
STARTCHAR Scaron
ENCODING -1
SWIDTH 508 0
DWIDTH 12 0
BBX 12 24 0 -2
BITMAP
60C0
1B00
0400
0000
1E40
61C0
C0C0
C040
C000
E000
7000
3E00
0F80
01C0
00E0
0060
0060
8060
C0C0
E180
9E00
0000
0000
0000
ENDCHAR
STARTCHAR scaron
ENCODING -1
SWIDTH 508 0
DWIDTH 12 0
BBX 12 24 0 -2
BITMAP
0000
0000
3180
1B00
0A00
0400
0000
0000
1E40
61C0
C0C0
C040
E000
7C00
1F80
03C0
00E0
8060
C060
E0C0
9F00
0000
0000
0000
ENDCHAR
STARTCHAR Zcaron
ENCODING -1
SWIDTH 508 0
DWIDTH 12 0
BBX 12 24 0 -2
BITMAP
60C0
1B00
0400
0000
7FE0
40C0
4180
8180
0300
0300
0600
0600
0C00
0C00
1800
1800
3000
3020
6040
60C0
FFC0
0000
0000
0000
ENDCHAR
STARTCHAR zcaron
ENCODING -1
SWIDTH 508 0
DWIDTH 12 0
BBX 12 24 0 -2
BITMAP
0000
0000
3180
1B00
0A00
0400
0000
0000
7FE0
60C0
4180
8180
0300
0600
0400
0C00
1800
3020
3040
6040
FFC0
0000
0000
0000
ENDCHAR
STARTCHAR Ydieresis
ENCODING -1
SWIDTH 508 0
DWIDTH 12 0
BBX 12 24 0 -2
BITMAP
1980
1980
0000
0000
F0E0
6040
6040
3080
3080
1900
1900
0F00
0E00
0600
0600
0600
0600
0600
0600
0600
1F80
0000
0000
0000
ENDCHAR
ENDFONT
